<?xml version="1.0" encoding="UTF-8" standalone="no"?><svg xmlns="http://www.w3.org/2000/svg" xmlns:xlink="http://www.w3.org/1999/xlink" contentScriptType="application/ecmascript" contentStyleType="text/css" height="841px" preserveAspectRatio="none" style="width:954px;height:841px;" version="1.1" viewBox="0 0 954 841" width="954px" zoomAndPan="magnify"><defs><filter height="300%" id="f5yxu7s6klj1q" width="300%" x="-1" y="-1"><feGaussianBlur result="blurOut" stdDeviation="2.0"/><feColorMatrix in="blurOut" result="blurOut2" type="matrix" values="0 0 0 0 0 0 0 0 0 0 0 0 0 0 0 0 0 0 .4 0"/><feOffset dx="4.0" dy="4.0" in="blurOut2" result="blurOut3"/><feBlend in="SourceGraphic" in2="blurOut3" mode="normal"/></filter></defs><g><text fill="#000000" font-family="sans-serif" font-size="18" lengthAdjust="spacing" textLength="210" x="370" y="28.708">Employee management</text><rect fill="#FFFFFF" filter="url(#f5yxu7s6klj1q)" height="250.1953" style="stroke:#000000;stroke-width:2.0;" width="930" x="10" y="267.0469"/><rect fill="#FFFFFF" filter="url(#f5yxu7s6klj1q)" height="250.1953" style="stroke:#000000;stroke-width:2.0;" width="930" x="10" y="531.2422"/><line style="stroke:#A80036;stroke-width:1.0;stroke-dasharray:5.0,5.0;" x1="59" x2="59" y1="75.25" y2="798.4375"/><line style="stroke:#A80036;stroke-width:1.0;stroke-dasharray:5.0,5.0;" x1="315.5" x2="315.5" y1="75.25" y2="798.4375"/><line style="stroke:#A80036;stroke-width:1.0;stroke-dasharray:5.0,5.0;" x1="899" x2="899" y1="75.25" y2="798.4375"/><rect fill="#FEFECE" filter="url(#f5yxu7s6klj1q)" height="30.2969" style="stroke:#A80036;stroke-width:1.5;" width="74" x="20" y="39.9531"/><text fill="#000000" font-family="sans-serif" font-size="14" lengthAdjust="spacing" textLength="60" x="27" y="59.9482">Manager</text><rect fill="#FEFECE" filter="url(#f5yxu7s6klj1q)" height="30.2969" style="stroke:#A80036;stroke-width:1.5;" width="74" x="20" y="797.4375"/><text fill="#000000" font-family="sans-serif" font-size="14" lengthAdjust="spacing" textLength="60" x="27" y="817.4326">Manager</text><rect fill="#FEFECE" filter="url(#f5yxu7s6klj1q)" height="30.2969" style="stroke:#A80036;stroke-width:1.5;" width="53" x="287.5" y="39.9531"/><text fill="#000000" font-family="sans-serif" font-size="14" lengthAdjust="spacing" textLength="39" x="294.5" y="59.9482">Client</text><rect fill="#FEFECE" filter="url(#f5yxu7s6klj1q)" height="30.2969" style="stroke:#A80036;stroke-width:1.5;" width="53" x="287.5" y="797.4375"/><text fill="#000000" font-family="sans-serif" font-size="14" lengthAdjust="spacing" textLength="39" x="294.5" y="817.4326">Client</text><rect fill="#FEFECE" filter="url(#f5yxu7s6klj1q)" height="30.2969" style="stroke:#A80036;stroke-width:1.5;" width="58" x="868" y="39.9531"/><text fill="#000000" font-family="sans-serif" font-size="14" lengthAdjust="spacing" textLength="44" x="875" y="59.9482">Server</text><rect fill="#FEFECE" filter="url(#f5yxu7s6klj1q)" height="30.2969" style="stroke:#A80036;stroke-width:1.5;" width="58" x="868" y="797.4375"/><text fill="#000000" font-family="sans-serif" font-size="14" lengthAdjust="spacing" textLength="44" x="875" y="817.4326">Server</text><polygon fill="#A80036" points="304,102.3828,314,106.3828,304,110.3828,308,106.3828" style="stroke:#A80036;stroke-width:1.0;"/><line style="stroke:#A80036;stroke-width:1.0;" x1="59" x2="310" y1="106.3828" y2="106.3828"/><text fill="#000000" font-family="sans-serif" font-size="13" lengthAdjust="spacing" textLength="208" x="66" y="101.3169">Chooses to add a new employee</text><polygon fill="#A80036" points="70,131.5156,60,135.5156,70,139.5156,66,135.5156" style="stroke:#A80036;stroke-width:1.0;"/><line style="stroke:#A80036;stroke-width:1.0;stroke-dasharray:2.0,2.0;" x1="64" x2="315" y1="135.5156" y2="135.5156"/><text fill="#000000" font-family="sans-serif" font-size="13" lengthAdjust="spacing" textLength="190" x="76" y="130.4497">New employee object created</text><polygon fill="#A80036" points="304,160.6484,314,164.6484,304,168.6484,308,164.6484" style="stroke:#A80036;stroke-width:1.0;"/><line style="stroke:#A80036;stroke-width:1.0;" x1="59" x2="310" y1="164.6484" y2="164.6484"/><text fill="#000000" font-family="sans-serif" font-size="13" lengthAdjust="spacing" textLength="126" x="66" y="159.5825">Input employee info</text><polygon fill="#A80036" points="887,189.7813,897,193.7813,887,197.7813,891,193.7813" style="stroke:#A80036;stroke-width:1.0;"/><line style="stroke:#A80036;stroke-width:1.0;" x1="316" x2="893" y1="193.7813" y2="193.7813"/><text fill="#000000" font-family="sans-serif" font-size="13" lengthAdjust="spacing" textLength="300" x="323" y="188.7153">Insert new employee record with status=Active</text><polygon fill="#A80036" points="327,218.9141,317,222.9141,327,226.9141,323,222.9141" style="stroke:#A80036;stroke-width:1.0;"/><line style="stroke:#A80036;stroke-width:1.0;stroke-dasharray:2.0,2.0;" x1="321" x2="898" y1="222.9141" y2="222.9141"/><text fill="#000000" font-family="sans-serif" font-size="13" lengthAdjust="spacing" textLength="53" x="333" y="217.8481">Success</text><polygon fill="#A80036" points="70,248.0469,60,252.0469,70,256.0469,66,252.0469" style="stroke:#A80036;stroke-width:1.0;"/><line style="stroke:#A80036;stroke-width:1.0;stroke-dasharray:2.0,2.0;" x1="64" x2="315" y1="252.0469" y2="252.0469"/><text fill="#000000" font-family="sans-serif" font-size="13" lengthAdjust="spacing" textLength="53" x="76" y="246.981">Success</text><path d="M10,267.0469 L80,267.0469 L80,274.0469 L70,284.0469 L10,284.0469 L10,267.0469 " fill="#EEEEEE" style="stroke:#000000;stroke-width:1.0;"/><rect fill="none" height="250.1953" style="stroke:#000000;stroke-width:2.0;" width="930" x="10" y="267.0469"/><text fill="#000000" font-family="sans-serif" font-size="13" font-weight="bold" lengthAdjust="spacing" textLength="25" x="25" y="280.1138">opt</text><polygon fill="#A80036" points="304,301.3125,314,305.3125,304,309.3125,308,305.3125" style="stroke:#A80036;stroke-width:1.0;"/><line style="stroke:#A80036;stroke-width:1.0;" x1="59" x2="310" y1="305.3125" y2="305.3125"/><text fill="#000000" font-family="sans-serif" font-size="13" lengthAdjust="spacing" textLength="233" x="66" y="300.2466">Selects "Edit employee" functionality</text><polygon fill="#A80036" points="887,330.4453,897,334.4453,887,338.4453,891,334.4453" style="stroke:#A80036;stroke-width:1.0;"/><line style="stroke:#A80036;stroke-width:1.0;" x1="316" x2="893" y1="334.4453" y2="334.4453"/><text fill="#000000" font-family="sans-serif" font-size="13" lengthAdjust="spacing" textLength="147" x="323" y="329.3794">Get current employees</text><polygon fill="#A80036" points="327,359.5781,317,363.5781,327,367.5781,323,363.5781" style="stroke:#A80036;stroke-width:1.0;"/><line style="stroke:#A80036;stroke-width:1.0;stroke-dasharray:2.0,2.0;" x1="321" x2="898" y1="363.5781" y2="363.5781"/><text fill="#000000" font-family="sans-serif" font-size="13" lengthAdjust="spacing" textLength="173" x="333" y="358.5122">Returns current employees</text><polygon fill="#A80036" points="70,388.7109,60,392.7109,70,396.7109,66,392.7109" style="stroke:#A80036;stroke-width:1.0;"/><line style="stroke:#A80036;stroke-width:1.0;stroke-dasharray:2.0,2.0;" x1="64" x2="315" y1="392.7109" y2="392.7109"/><text fill="#000000" font-family="sans-serif" font-size="13" lengthAdjust="spacing" textLength="165" x="76" y="387.645">Shows current employees</text><polygon fill="#A80036" points="304,417.8438,314,421.8438,304,425.8438,308,421.8438" style="stroke:#A80036;stroke-width:1.0;"/><line style="stroke:#A80036;stroke-width:1.0;" x1="59" x2="310" y1="421.8438" y2="421.8438"/><text fill="#000000" font-family="sans-serif" font-size="13" lengthAdjust="spacing" textLength="232" x="66" y="416.7778">Selects which employees info to edit</text><polygon fill="#A80036" points="887,446.9766,897,450.9766,887,454.9766,891,450.9766" style="stroke:#A80036;stroke-width:1.0;"/><line style="stroke:#A80036;stroke-width:1.0;" x1="316" x2="893" y1="450.9766" y2="450.9766"/><text fill="#000000" font-family="sans-serif" font-size="13" lengthAdjust="spacing" textLength="559" x="323" y="445.9106">Insert a new version of the employee record with updated fields and a newer timestamp</text><polygon fill="#A80036" points="327,476.1094,317,480.1094,327,484.1094,323,480.1094" style="stroke:#A80036;stroke-width:1.0;"/><line style="stroke:#A80036;stroke-width:1.0;stroke-dasharray:2.0,2.0;" x1="321" x2="898" y1="480.1094" y2="480.1094"/><text fill="#000000" font-family="sans-serif" font-size="13" lengthAdjust="spacing" textLength="53" x="333" y="475.0435">Success</text><polygon fill="#A80036" points="70,505.2422,60,509.2422,70,513.2422,66,509.2422" style="stroke:#A80036;stroke-width:1.0;"/><line style="stroke:#A80036;stroke-width:1.0;stroke-dasharray:2.0,2.0;" x1="64" x2="315" y1="509.2422" y2="509.2422"/><text fill="#000000" font-family="sans-serif" font-size="13" lengthAdjust="spacing" textLength="53" x="76" y="504.1763">Success</text><path d="M10,531.2422 L80,531.2422 L80,538.2422 L70,548.2422 L10,548.2422 L10,531.2422 " fill="#EEEEEE" style="stroke:#000000;stroke-width:1.0;"/><rect fill="none" height="250.1953" style="stroke:#000000;stroke-width:2.0;" width="930" x="10" y="531.2422"/><text fill="#000000" font-family="sans-serif" font-size="13" font-weight="bold" lengthAdjust="spacing" textLength="25" x="25" y="544.3091">opt</text><polygon fill="#A80036" points="304,565.5078,314,569.5078,304,573.5078,308,569.5078" style="stroke:#A80036;stroke-width:1.0;"/><line style="stroke:#A80036;stroke-width:1.0;" x1="59" x2="310" y1="569.5078" y2="569.5078"/><text fill="#000000" font-family="sans-serif" font-size="13" lengthAdjust="spacing" textLength="232" x="66" y="564.4419">Selects "Fire employee" functionality</text><polygon fill="#A80036" points="887,594.6406,897,598.6406,887,602.6406,891,598.6406" style="stroke:#A80036;stroke-width:1.0;"/><line style="stroke:#A80036;stroke-width:1.0;" x1="316" x2="893" y1="598.6406" y2="598.6406"/><text fill="#000000" font-family="sans-serif" font-size="13" lengthAdjust="spacing" textLength="147" x="323" y="593.5747">Get current employees</text><polygon fill="#A80036" points="327,623.7734,317,627.7734,327,631.7734,323,627.7734" style="stroke:#A80036;stroke-width:1.0;"/><line style="stroke:#A80036;stroke-width:1.0;stroke-dasharray:2.0,2.0;" x1="321" x2="898" y1="627.7734" y2="627.7734"/><text fill="#000000" font-family="sans-serif" font-size="13" lengthAdjust="spacing" textLength="173" x="333" y="622.7075">Returns current employees</text><polygon fill="#A80036" points="70,652.9063,60,656.9063,70,660.9063,66,656.9063" style="stroke:#A80036;stroke-width:1.0;"/><line style="stroke:#A80036;stroke-width:1.0;stroke-dasharray:2.0,2.0;" x1="64" x2="315" y1="656.9063" y2="656.9063"/><text fill="#000000" font-family="sans-serif" font-size="13" lengthAdjust="spacing" textLength="165" x="76" y="651.8403">Shows current employees</text><polygon fill="#A80036" points="304,682.0391,314,686.0391,304,690.0391,308,686.0391" style="stroke:#A80036;stroke-width:1.0;"/><line style="stroke:#A80036;stroke-width:1.0;" x1="59" x2="310" y1="686.0391" y2="686.0391"/><text fill="#000000" font-family="sans-serif" font-size="13" lengthAdjust="spacing" textLength="194" x="66" y="680.9731">Selects which employee to fire</text><polygon fill="#A80036" points="887,711.1719,897,715.1719,887,719.1719,891,715.1719" style="stroke:#A80036;stroke-width:1.0;"/><line style="stroke:#A80036;stroke-width:1.0;" x1="316" x2="893" y1="715.1719" y2="715.1719"/><text fill="#000000" font-family="sans-serif" font-size="13" lengthAdjust="spacing" textLength="310" x="323" y="710.106">Insert new employee record with status=Inactive</text><polygon fill="#A80036" points="327,740.3047,317,744.3047,327,748.3047,323,744.3047" style="stroke:#A80036;stroke-width:1.0;"/><line style="stroke:#A80036;stroke-width:1.0;stroke-dasharray:2.0,2.0;" x1="321" x2="898" y1="744.3047" y2="744.3047"/><text fill="#000000" font-family="sans-serif" font-size="13" lengthAdjust="spacing" textLength="53" x="333" y="739.2388">Success</text><polygon fill="#A80036" points="70,769.4375,60,773.4375,70,777.4375,66,773.4375" style="stroke:#A80036;stroke-width:1.0;"/><line style="stroke:#A80036;stroke-width:1.0;stroke-dasharray:2.0,2.0;" x1="64" x2="315" y1="773.4375" y2="773.4375"/><text fill="#000000" font-family="sans-serif" font-size="13" lengthAdjust="spacing" textLength="53" x="76" y="768.3716">Success</text><!--MD5=[8cafe2e03c6c8a2895aede985ed9344c]
@startuml employee-management
title Employee management

Manager -> Client: Chooses to add a new employee
Client - -> Manager: New employee object created
Manager -> Client: Input employee info
Client -> Server: Insert new employee record with status=Active
Server - -> Client: Success
Client - -> Manager: Success

opt 
Manager -> Client: Selects "Edit employee" functionality
Client -> Server: Get current employees
Server - -> Client: Returns current employees
Client - -> Manager: Shows current employees
Manager -> Client: Selects which employees info to edit
Client -> Server: Insert a new version of the employee record with updated fields and a newer timestamp
Server - -> Client: Success
Client - -> Manager: Success
end

opt 
Manager -> Client: Selects "Fire employee" functionality
Client -> Server: Get current employees
Server - -> Client: Returns current employees
Client - -> Manager: Shows current employees
Manager -> Client: Selects which employee to fire
Client -> Server: Insert new employee record with status=Inactive
Server - -> Client: Success
Client - -> Manager: Success
end
@enduml employee-management

PlantUML version 1.2021.00(Sun Jan 10 12:25:05 EET 2021)
(MIT source distribution)
Java Runtime: OpenJDK Runtime Environment
JVM: OpenJDK 64-Bit Server VM
Default Encoding: UTF-8
Language: en
Country: US
--></g></svg>